<svg width="17" height="17" fill="none" xmlns="http://www.w3.org/2000/svg"><path d="M7.404 4.18L4.867 1.253c-.293-.337-.83-.336-1.169.004l-2.086 2.09c-.621.622-.8 1.546-.44 2.286a21.905 21.905 0 0010.17 10.184c.74.36 1.663.182 2.284-.44l2.106-2.11c.341-.341.342-.88.001-1.173l-2.94-2.523c-.307-.264-.785-.23-1.093.08l-1.023 1.024a.347.347 0 01-.415.066 10.918 10.918 0 01-4.02-4.025.347.347 0 01.066-.416l1.02-1.02c.31-.311.343-.79.076-1.1v.002z" stroke="#fff" stroke-width="1.5" stroke-linecap="round" stroke-linejoin="round"/></svg>