<svg width="16" height="15" fill="none" xmlns="http://www.w3.org/2000/svg"><path d="M15.4 12.241a7.04 7.04 0 00-1.608-2.252 7.53 7.53 0 00-2.384-1.519l-.024-.009c1.243-.848 2.051-2.23 2.051-3.788C13.435 2.092 11.221 0 8.488 0 5.756 0 3.541 2.092 3.541 4.673c0 1.559.808 2.94 2.051 3.79l-.024.01A7.466 7.466 0 003.184 9.99a7.07 7.07 0 00-1.607 2.252 6.676 6.676 0 00-.589 2.602.143.143 0 00.046.11.16.16 0 00.114.045h1.197a.155.155 0 00.16-.147c.04-1.455.657-2.817 1.75-3.85 1.132-1.068 2.633-1.656 4.233-1.656 1.6 0 3.102.588 4.233 1.656 1.093 1.033 1.711 2.395 1.751 3.85.002.083.072.147.16.147h1.197a.168.168 0 00.114-.046.15.15 0 00.045-.109 6.692 6.692 0 00-.588-2.604zM8.488 7.915a3.512 3.512 0 01-2.425-.95 3.133 3.133 0 01-1.006-2.292c0-.865.357-1.679 1.006-2.291a3.512 3.512 0 012.425-.95c.916 0 1.777.337 2.426.95a3.133 3.133 0 011.005 2.291c0 .865-.357 1.68-1.005 2.292-.649.612-1.51.95-2.426.95z" fill="#fff"/></svg>