<svg width="30" height="22" viewBox="0 0 30 22" fill="none" xmlns="http://www.w3.org/2000/svg">
<path d="M28.9286 0H1.07143C0.478795 0 0 0.446875 0 1V21C0 21.5531 0.478795 22 1.07143 22H28.9286C29.5212 22 30 21.5531 30 21V1C30 0.446875 29.5212 0 28.9286 0ZM26.2232 3.40312L15.6596 11.075C15.3984 11.2656 15.0335 11.2656 14.7723 11.075L4.20536 3.40312C4.16552 3.37443 4.13631 3.33483 4.1218 3.28986C4.1073 3.24489 4.10823 3.19681 4.12448 3.15236C4.14072 3.10792 4.17146 3.06933 4.21238 3.042C4.2533 3.01468 4.30236 2.99999 4.35268 3H26.0759C26.1262 2.99999 26.1753 3.01468 26.2162 3.042C26.2571 3.06933 26.2879 3.10792 26.3041 3.15236C26.3203 3.19681 26.3213 3.24489 26.3068 3.28986C26.2923 3.33483 26.2631 3.37443 26.2232 3.40312Z" fill="url(#paint0_linear)"/>
<defs>
<linearGradient id="paint0_linear" x1="0" y1="12.43" x2="30" y2="12.43" gradientUnits="userSpaceOnUse">
<stop stop-color="#4C9AF5"/>
<stop offset="0.505208" stop-color="#5640DF"/>
<stop offset="0.807292" stop-color="#9937BC"/>
</linearGradient>
</defs>
</svg>
