<svg width="30" height="30" viewBox="0 0 30 30" fill="none" xmlns="http://www.w3.org/2000/svg">
<path d="M24.2305 11.539H21.9227C21.9218 10.6211 21.5568 9.7412 20.9078 9.09221C20.2588 8.44322 19.3789 8.07822 18.4611 8.0773V5.76953C19.9906 5.77136 21.4571 6.3798 22.5386 7.46138C23.6202 8.54296 24.2287 10.0094 24.2305 11.539Z" fill="url(#paint0_linear)"/>
<path d="M28.8461 11.5389H26.5383C26.5358 9.39739 25.6841 7.34433 24.1698 5.83007C22.6556 4.31582 20.6025 3.46404 18.4611 3.4616V1.15381C21.2144 1.15686 23.8541 2.25198 25.801 4.19889C27.7479 6.14581 28.843 8.78551 28.8461 11.5389Z" fill="url(#paint1_linear)"/>
<path d="M19.9992 21.3261L22.584 18.7414C22.9299 18.3953 23.3698 18.1584 23.8492 18.0599C24.3285 17.9615 24.8262 18.0058 25.2806 18.1875L28.4284 19.4476C28.8924 19.6332 29.29 19.9536 29.5702 20.3674C29.8503 20.7812 30 21.2695 30 21.7692V27.4936C30.0008 27.8338 29.9322 28.1706 29.7983 28.4834C29.6644 28.7962 29.4681 29.0784 29.2214 29.3127C28.9747 29.547 28.6827 29.7285 28.3635 29.846C28.0442 29.9636 27.7043 30.0147 27.3645 29.9964C5.29986 28.6232 0.843541 9.93494 0.0162031 2.77856C-0.0238673 2.4287 0.0105869 2.07432 0.1173 1.73872C0.224012 1.40313 0.400566 1.09394 0.635346 0.831471C0.870127 0.569006 1.15782 0.359221 1.47949 0.215914C1.80116 0.0726069 2.14953 -0.000974376 2.50168 9.74273e-06H8.12458C8.62429 -6.30321e-06 9.11255 0.149705 9.52636 0.429831C9.94018 0.709956 10.2606 1.10765 10.4462 1.5716L11.7051 4.71939C11.8868 5.17376 11.9311 5.67145 11.8327 6.15079C11.7342 6.63012 11.4973 7.07004 11.1512 7.41602L8.56652 10.0007C8.56652 10.0007 9.99965 20.0764 19.9992 21.3261Z" fill="url(#paint2_linear)"/>
<defs>
<linearGradient id="paint0_linear" x1="18.4611" y1="9.02926" x2="24.2305" y2="9.02926" gradientUnits="userSpaceOnUse">
<stop stop-color="#4C9AF5"/>
<stop offset="0.505208" stop-color="#5640DF"/>
<stop offset="0.807292" stop-color="#9937BC"/>
</linearGradient>
<linearGradient id="paint1_linear" x1="18.4611" y1="7.02137" x2="28.8461" y2="7.02137" gradientUnits="userSpaceOnUse">
<stop stop-color="#4C9AF5"/>
<stop offset="0.505208" stop-color="#5640DF"/>
<stop offset="0.807292" stop-color="#9937BC"/>
</linearGradient>
<linearGradient id="paint2_linear" x1="0" y1="16.95" x2="30" y2="16.95" gradientUnits="userSpaceOnUse">
<stop stop-color="#4C9AF5"/>
<stop offset="0.505208" stop-color="#5640DF"/>
<stop offset="0.807292" stop-color="#9937BC"/>
</linearGradient>
</defs>
</svg>
