<svg width="16" height="15" viewBox="0 0 16 15" fill="none" xmlns="http://www.w3.org/2000/svg">
<path d="M15.7071 3.03922L12.9684 0.281641C12.7874 0.10126 12.5425 0 12.2872 0C12.0319 0 11.787 0.10126 11.606 0.281641L1.89687 9.99391L1.0104 13.8265C0.979824 13.9666 0.980872 14.1118 1.01347 14.2514C1.04607 14.391 1.1094 14.5216 1.19883 14.6336C1.28826 14.7456 1.40153 14.8361 1.53038 14.8987C1.65922 14.9612 1.80037 14.9941 1.94353 14.9949C2.01023 15.0017 2.07744 15.0017 2.14415 14.9949L6.01194 14.1069L15.7071 4.40398C15.8871 4.22268 15.9882 3.97734 15.9882 3.7216C15.9882 3.46585 15.8871 3.22051 15.7071 3.03922ZM5.54538 13.2656L1.9202 14.0274L2.74601 10.466L10.0104 3.21682L12.8097 6.02114L5.54538 13.2656ZM13.4349 5.34343L10.6356 2.53911L12.2592 0.921959L15.0119 3.72627L13.4349 5.34343Z" fill="white"/>
</svg>
