<svg width="15" height="15" viewBox="0 0 15 15" fill="none" xmlns="http://www.w3.org/2000/svg">
<path d="M14.4643 0H0.535714C0.239397 0 0 0.304688 0 0.681818V14.3182C0 14.6953 0.239397 15 0.535714 15H14.4643C14.7606 15 15 14.6953 15 14.3182V0.681818C15 0.304688 14.7606 0 14.4643 0ZM13.7946 2.3608V13.4659H1.20536V2.3608L0.743304 1.9027L1.40123 0.826705L2.11775 1.53622H12.8839L13.6004 0.826705L14.2584 1.9027L13.7946 2.3608ZM12.8839 1.53409L7.5 6.8608L2.11607 1.53409L1.39955 0.824574L0.741629 1.90057L1.20368 2.35866L6.92243 8.01776C7.0869 8.18037 7.28923 8.26865 7.49749 8.26865C7.70575 8.26865 7.90808 8.18037 8.07255 8.01776L13.7946 2.3608L14.2567 1.9027L13.5988 0.826705L12.8839 1.53409Z" fill="white"/>
</svg>
