<svg width="17" height="17" viewBox="0 0 17 17" fill="none" xmlns="http://www.w3.org/2000/svg">
<path d="M7.40386 4.18056L4.86662 1.25199C4.57413 0.91451 4.03788 0.91601 3.69813 1.25649L1.61164 3.34661C0.990645 3.96833 0.812895 4.89152 1.17214 5.63173C3.31835 10.0752 6.90215 13.6638 11.3428 15.8161C12.0823 16.1753 13.0048 15.9976 13.6258 15.3759L15.7318 13.2663C16.0731 12.925 16.0738 12.3858 15.7333 12.0933L12.7933 9.56974C12.4858 9.30576 12.0081 9.34025 11.6998 9.64924L10.6768 10.6737C10.6245 10.7286 10.5555 10.7647 10.4806 10.7767C10.4057 10.7886 10.3289 10.7756 10.2621 10.7397C8.58994 9.7768 7.20285 8.38798 6.24212 6.71466C6.20614 6.64773 6.19311 6.57084 6.20503 6.49579C6.21695 6.42074 6.25317 6.35168 6.30812 6.29919L7.32811 5.2785C7.63711 4.96802 7.67086 4.48805 7.40386 4.17981V4.18056Z" stroke="white" stroke-width="1.5" stroke-linecap="round" stroke-linejoin="round"/>
</svg>
