<svg width="16" height="15" viewBox="0 0 16 15" fill="none" xmlns="http://www.w3.org/2000/svg">
<path d="M15.3997 12.2412C15.0235 11.3992 14.4774 10.6344 13.792 9.98932C13.1087 9.34242 12.2993 8.82664 11.4084 8.47048C11.4004 8.46671 11.3925 8.46482 11.3845 8.46105C12.6272 7.61307 13.435 6.23178 13.435 4.67337C13.435 2.09171 11.2209 0 8.48822 0C5.75553 0 3.54144 2.09171 3.54144 4.67337C3.54144 6.23178 4.34928 7.61306 5.59196 8.46294C5.58398 8.46671 5.57601 8.46859 5.56803 8.47236C4.67442 8.82852 3.87256 9.3392 3.1844 9.99121C2.49965 10.6367 1.9537 11.4015 1.5767 12.2431C1.20633 13.0671 1.00658 13.9505 0.98827 14.8455C0.987738 14.8656 0.991472 14.8856 0.999252 14.9043C1.00703 14.9231 1.0187 14.9401 1.03357 14.9545C1.04844 14.9689 1.06622 14.9804 1.08584 14.9882C1.10547 14.996 1.12655 15 1.14784 15H2.34464C2.43241 15 2.50222 14.934 2.50422 14.853C2.54411 13.3982 3.16246 12.0358 4.25554 11.0031C5.38651 9.93467 6.8885 9.34673 8.48822 9.34673C10.0879 9.34673 11.5899 9.93467 12.7209 11.0031C13.814 12.0358 14.4323 13.3982 14.4722 14.853C14.4742 14.9359 14.544 15 14.6318 15H15.8286C15.8499 15 15.871 14.996 15.8906 14.9882C15.9102 14.9804 15.928 14.9689 15.9429 14.9545C15.9577 14.9401 15.9694 14.9231 15.9772 14.9043C15.985 14.8856 15.9887 14.8656 15.9882 14.8455C15.9682 13.9447 15.7708 13.0685 15.3997 12.2412ZM8.48822 7.91457C7.57267 7.91457 6.71097 7.57726 6.0627 6.96482C5.41444 6.35239 5.05739 5.53832 5.05739 4.67337C5.05739 3.80842 5.41444 2.99435 6.0627 2.38191C6.71097 1.76947 7.57267 1.43216 8.48822 1.43216C9.40377 1.43216 10.2655 1.76947 10.9137 2.38191C11.562 2.99435 11.919 3.80842 11.919 4.67337C11.919 5.53832 11.562 6.35239 10.9137 6.96482C10.2655 7.57726 9.40377 7.91457 8.48822 7.91457Z" fill="white"/>
</svg>
