<svg width="30" height="22" fill="none" xmlns="http://www.w3.org/2000/svg"><path d="M28.929 0H1.07C.48 0 0 .447 0 1v20c0 .553.479 1 1.071 1H28.93c.59 0 1.07-.447 1.07-1V1c0-.553-.479-1-1.071-1zm-2.706 3.403L15.66 11.075a.76.76 0 01-.888 0L4.205 3.403a.225.225 0 01-.083-.113.21.21 0 01.002-.138.227.227 0 01.088-.11.253.253 0 01.14-.042h21.724c.05 0 .1.015.14.042a.225.225 0 01.088.11.211.211 0 01.003.138.225.225 0 01-.084.113z" fill="url(#paint0_linear)"/><defs><linearGradient id="paint0_linear" x1="0" y1="12.43" x2="30" y2="12.43" gradientUnits="userSpaceOnUse"><stop stop-color="#4C9AF5"/><stop offset=".505" stop-color="#5640DF"/><stop offset=".807" stop-color="#9937BC"/></linearGradient></defs></svg>