<svg width="30" height="30" fill="none" xmlns="http://www.w3.org/2000/svg"><path d="M24.23 11.539h-2.307a3.465 3.465 0 00-3.462-3.462V5.77a5.776 5.776 0 015.77 5.769z" fill="url(#paint0_linear)"/><path d="M28.846 11.539h-2.308a8.087 8.087 0 00-8.077-8.077V1.154a10.396 10.396 0 0110.385 10.385z" fill="url(#paint1_linear)"/><path d="M20 21.326l2.584-2.585a2.5 2.5 0 012.697-.553l3.147 1.26A2.5 2.5 0 0130 21.769v5.725a2.5 2.5 0 01-2.636 2.502C5.3 28.623.845 9.935.017 2.78A2.495 2.495 0 012.502 0h5.623a2.5 2.5 0 012.321 1.572l1.26 3.147a2.5 2.5 0 01-.555 2.697l-2.584 2.585S10 20.076 19.999 21.326z" fill="url(#paint2_linear)"/><defs><linearGradient id="paint0_linear" x1="18.461" y1="9.029" x2="24.23" y2="9.029" gradientUnits="userSpaceOnUse"><stop stop-color="#4C9AF5"/><stop offset=".505" stop-color="#5640DF"/><stop offset=".807" stop-color="#9937BC"/></linearGradient><linearGradient id="paint1_linear" x1="18.461" y1="7.021" x2="28.846" y2="7.021" gradientUnits="userSpaceOnUse"><stop stop-color="#4C9AF5"/><stop offset=".505" stop-color="#5640DF"/><stop offset=".807" stop-color="#9937BC"/></linearGradient><linearGradient id="paint2_linear" x1="0" y1="16.95" x2="30" y2="16.95" gradientUnits="userSpaceOnUse"><stop stop-color="#4C9AF5"/><stop offset=".505" stop-color="#5640DF"/><stop offset=".807" stop-color="#9937BC"/></linearGradient></defs></svg>